<svg xmlns="http://www.w3.org/2000/svg" id="Layer_1" data-name="Layer 1" version="1.1" viewBox="0 0 854 218">
  <rect width="200" height="50" x="1" y="8" rx="25" ry="25" fill="#34d399"/>
  <rect width="150" height="50" x="1" y="83" rx="25" ry="25" fill="#34d399"/>
  <rect width="80" height="50" x="1" y="158" rx="25" ry="25" fill="#34d399"/>
  <rect width="200" height="50" x="1" y="158" rx="25" ry="25" fill="#34d399" opacity="0.2"/>
  <rect width="200" height="50" x="1" y="83" rx="25" ry="25" fill="#34d399" opacity="0.2"/>
  <path fill="#fff" d="M323.4 82.5v-9c0-4.1.8-7.4 2.4-10.1 1.6-2.6 4.9-4 9.8-4h7.6V38c-1.9-.2-3.9-.5-5.9-.6-2-.2-4-.3-5.9-.3-6.4 0-12 1.3-17 3.8s-8.9 6.5-11.6 11.8c-2.8 5.3-4.1 12.3-4.1 20.8v9h-12.6v20.7h12.6V172h24.8v-68.8h34.7V172h25V82.5h-59.8Z" />
  <path fill="#fff" d="M370.6 37.5c-4 0-7.4 1.4-10.2 4.1-2.8 2.8-4.2 6.2-4.2 10.3s1.4 7.5 4.2 10.3c2.8 2.8 6.2 4.2 10.2 4.2s7.5-1.4 10.3-4.2c2.8-2.8 4.1-6.3 4.1-10.3s-1.4-7.5-4.1-10.3c-2.8-2.8-6.2-4.1-10.3-4.1ZM457.1 151c-3.7 2-8.3 3-14 3s-13.4-2.2-17.3-6.7c-2.9-3.3-4.7-8-5.4-13.9l66.2-.2v-6.8c0-9.6-1.8-17.9-5.5-24.8-3.7-7-8.8-12.3-15.5-16.1s-14.6-5.7-23.7-5.7-16.7 2-23.6 6c-6.8 4-12.2 9.6-16 16.7-3.8 7.1-5.8 15.3-5.8 24.7s2 17.4 5.9 24.5c4 7.1 9.4 12.6 16.3 16.6 6.9 4 14.8 6 23.7 6s22-2.9 30-8.6c8-5.8 12.8-13.5 14.5-23.2H464c-1.1 3.7-3.5 6.6-7.1 8.5Zm-27.2-48c3.2-2 7.3-3 12.3-3s10.9 1.6 14.5 4.9c3.5 3.2 5.3 7.6 5.3 13.1h-41.2c.4-2.2 1-4.2 1.7-6 1.7-4 4.1-7 7.3-9ZM501.4 37.2h24.8V172h-24.8zM612.5 92.4c-2.8-4-6.6-7-11.6-9.3-5-2.2-10.5-3.3-16.5-3.3-9 0-16.8 2-23.3 6s-11.6 9.6-15.1 16.8c-3.5 7.2-5.3 15.5-5.3 25s1.7 17.5 5.2 24.5 8.4 12.4 14.7 16.3c6.3 3.9 13.8 5.8 22.4 5.8s12.6-1.4 17.9-4.1c5.3-2.8 9.3-6.4 11.8-11l1.4 12.8h23.2V37.2h-24.8v55.3Zm-3.2 47.4c-2 3.7-4.7 6.6-8.3 8.7-3.5 2.1-7.7 3.2-12.3 3.2s-8.8-1.1-12.2-3.2c-3.5-2.2-6.2-5.1-8-8.7-1.9-3.7-2.8-7.9-2.8-12.9s.9-9.2 2.8-12.9c1.9-3.7 4.5-6.6 8-8.7 3.5-2.2 7.6-3.2 12.2-3.2s8.8 1.1 12.3 3.2 6.3 5 8.3 8.6c2 3.7 3 8 3 13s-1 9.2-3 13ZM656.3 82.5H681V172h-24.7zM668.5 37.5c-4.1 0-7.5 1.4-10.3 4.2-2.8 2.8-4.2 6.3-4.2 10.3s1.4 7.5 4.2 10.3c2.8 2.8 6.3 4.2 10.3 4.2s7.3-1.4 10.2-4.2c2.8-2.8 4.2-6.3 4.2-10.3s-1.4-7.5-4.2-10.3c-2.8-2.8-6.2-4.2-10.2-4.2ZM739 37.2c-7 0-13 1.3-18.2 3.8-5.2 2.5-9.2 6.5-12.1 11.8-2.9 5.3-4.3 12.3-4.3 20.8v9h-12.6v20.7h12.6v68.8h24.8v-68.8h21.4V82.6h-21.4v-9c0-4.1.9-7.4 2.7-10.1 1.8-2.6 5.5-4 11.2-4h7.7V38.1c-2-.2-4.1-.5-6.1-.6-2-.2-4-.3-5.8-.3ZM826.3 82.5l-22.8 61.4-21.3-61.4h-26.5l36 93.2-1.9 5.3c-1.3 3.4-2.8 5.9-4.3 7.7-1.6 1.7-3.4 3-5.5 3.7-2.1.7-4.7 1.1-7.7 1.1h-14.2v20.7c2.6.8 5.4 1.4 8.3 1.8s5.9.5 9 .5c7.7 0 14.1-2 19.2-5.8 5.1-3.9 9.5-10.2 13-19l44.5-109.1h-25.7Z"/>
</svg>